<svg width="30" height="30" xml:space="preserve" preserveAspectRatio="xMinYMin meet"
 xmlns='http://www.w3.org/2000/svg' xmlns:xlink="http://www.w3.org/1999/xlink"
 >
 	<pattern id="screen_pattern" patternUnits="userSpaceOnUse" 
 			patternContentUnits="objectBoundingBox" 
             x="0" y="0" width="10" height="10"
             viewBox="0 0 10 10" style=" stroke:gold; stroke-width: .25">
 
     <line x1="0" y1="0" x2="10" y2="0"  />
     <line x1="0" y1="1" x2="10" y2="1"  />
     <line x1="0" y1="2" x2="10" y2="2"  />
     <line x1="0" y1="3" x2="10" y2="3"  />
     <line x1="0" y1="4" x2="10" y2="4"  />
     <line x1="0" y1="5" x2="10" y2="5"  />
     <line x1="0" y1="6" x2="10" y2="6"  />
     <line x1="0" y1="7" x2="10" y2="7"  />
     <line x1="0" y1="8" x2="10" y2="8"  />
     <line x1="0" y1="9" x2="10" y2="9"  />
 
     <line x1="0" y1="0" x2="0" y2="10"  />
     <line x1="3" y1="0" x2="1" y2="10"  />
     <line x1="6" y1="0" x2="2" y2="10"  />
     <line x1="9" y1="0" x2="3" y2="10"  />
     <line x1="12" y1="0" x2="4" y2="10"  />
     <line x1="15" y1="0" x2="5" y2="10"  />
     <line x1="18" y1="0" x2="6" y2="10"  />
     <line x1="21" y1="0" x2="7" y2="10"  />
     <line x1="24" y1="0" x2="8" y2="10"  />
     <line x1="27" y1="0" x2="9" y2="10"  />
     </pattern>
</svg>