<svg width="30" height="30" xml:space="preserve" preserveAspectRatio="xMinYMin meet"
 xmlns='http://www.w3.org/2000/svg' xmlns:xlink="http://www.w3.org/1999/xlink"
 >
 	<pattern id="screen_pattern" patternUnits="userSpaceOnUse"
             x="0" y="0" width="30" height="30"
             viewBox="0 0 30 30" style=" stroke:gold">
 
     <line x1="0" y1="0" x2="30" y2="0"  />
     <line x1="0" y1="3" x2="30" y2="3"  />
     <line x1="0" y1="6" x2="30" y2="6"  />
     <line x1="0" y1="9" x2="30" y2="9"  />
     <line x1="0" y1="12" x2="30" y2="12"  />
     <line x1="0" y1="15" x2="30" y2="15"  />
     <line x1="0" y1="18" x2="30" y2="18"  />
     <line x1="0" y1="21" x2="30" y2="21"  />
     <line x1="0" y1="24" x2="30" y2="24"  />
     <line x1="0" y1="27" x2="30" y2="27"  />
 
     <line x1="0" y1="0" x2="0" y2="30"  />
     <line x1="3" y1="0" x2="3" y2="30"  />
     <line x1="6" y1="0" x2="6" y2="30"  />
     <line x1="9" y1="0" x2="9" y2="30"  />
     <line x1="12" y1="0" x2="12" y2="30"  />
     <line x1="15" y1="0" x2="15" y2="30"  />
     <line x1="18" y1="0" x2="18" y2="30"  />
     <line x1="21" y1="0" x2="21" y2="30"  />
     <line x1="24" y1="0" x2="24" y2="30"  />
     <line x1="27" y1="0" x2="27" y2="30"  />
     </pattern>
</svg>