<svg  width="600" height="480" viewBox="0 0 96 96" xml:space="preserve" preserveAspectRatio="xMinYMin meet"
 xmlns='http://www.w3.org/2000/svg' xmlns:xlink="http://www.w3.org/1999/xlink"
 >
	<defs>
	<!--importStyle="windows.css"-->
	<linearGradient id="blue_white" x1="100%" y1="100%" x2="0%" y2="0%">
	<stop offset="0%" style="stop-color:rgb(65,105,225);
	stop-opacity:1"/>
	<stop offset="100%" style="stop-color:rgb(255,255,255);
	stop-opacity:1"/>
	</linearGradient>
   <path id="arrow" d="M 0,0 m 0,-1.5 l 0,3 m 0,-1.5 l 2,1 m -2,-1 l 2,-1" style="fill:navy; stroke-opacity: 1; stroke:navy; stroke-width: .125" />

	</defs>
	
	<g id="window">
	<g id="glassGroup" onmouseover="expose(evt,'glass_pane',true)" onmouseout="expose(evt,'glass_pane',false)">
		<path id="glass_pane" d="M 15,100 L 57,15 L 177,15 L 225,100 L 177,185 L 57,185 L 15,100" class="glass"  />	
	</g>

	<path id="frame_1" d="M 60,200 L 71,178 L 169,178 L 180,200 L 60,200" class="frame" />
	<path id="frame_2" d="M 60,200 L 0,100 L 22,100 L 71,178 L 60,200" class="frame" />
	<path id="frame_3" d="M 0,100 L 60,0 L 71,22 L 22,100 L 0,100" class="frame" />
	<path id="frame_4" d="M 60,0 L 180,0 L 169,22 L 71,22 L 60,0" class="frame" />
	<path id="frame_5" d="M 180,0 L 240,100 L 218,100 L 169,22 L 180,0" class="frame" />
	<path id="frame_6" d="M 240,100 L 180,200 L 169,178 L 218,100 L 240,100" class="frame" />
	</g>
	
</svg>
