<?xml version="1.0" standalone="no"?>
<!--Created with Sketsa SVG Editor (http://www.kiyut.com)-->
<svg contentScriptType="text/ecmascript" width="520.0px" xmlns:xlink="http://www.w3.org/1999/xlink"
    baseProfile="full" zoomAndPan="magnify" contentStyleType="text/css" height="2872.0px"
    preserveAspectRatio="xMidYMid meet" xmlns="http://www.w3.org/2000/svg" version="1.0">
    <rect x="-27.01029" stroke-linecap="round" y="-36.00004" transform="matrix(1.0 0.0 0.0 1.0 50.0 50.0)"
        fill="none" width="471.5587" stroke-linejoin="round" height="487.1959" stroke="#000000"
        stroke-width="40"/>
    <rect x="13.384914" stroke-linecap="round" y="476.15704" transform="matrix(1.0 0.0 0.0 1.0 50.0 50.0)"
        fill="none" width="394.77002" stroke-linejoin="round" height="49.917725" stroke="#000000"
        stroke-width="40"/>
    <rect x="34.53445" stroke-linecap="round" y="526.07477" transform="matrix(1.0 0.0 0.0 1.0 50.0 50.0)"
        fill="none" width="352.47098" stroke-linejoin="round" height="6.2403564" stroke="#000000"
        stroke-width="40"/>
    <rect x="22.53445" stroke-linecap="round" y="600.95526" transform="matrix(1.0 0.0 0.0 1.0 50.0 50.0)"
        fill="none" width="352.47098" stroke-linejoin="round" height="24.959656" stroke="#000000"
        stroke-width="40"/>
    <rect x="22.53445" stroke-linecap="round" y="675.83417" transform="matrix(1.0 0.0 0.0 1.0 50.0 50.0)"
        fill="none" width="352.47098" stroke-linejoin="round" height="27.768372" stroke="#000000"
        stroke-width="40"/>
    <rect x="22.53445" stroke-linecap="round" y="922.62494" transform="matrix(1.0 0.0 0.0 1.0 50.0 50.0)"
        fill="none" width="352.47098" stroke-linejoin="round" height="27.768372" stroke="#000000"
        stroke-width="40"/>
    <rect x="22.53445" stroke-linecap="round" y="1000.31104" transform="matrix(1.0 0.0 0.0 1.0 50.0 50.0)"
        fill="none" width="352.47098" stroke-linejoin="round" height="24.959595" stroke="#000000"
        stroke-width="40"/>
    <rect x="36.632366" stroke-linecap="round" y="2391.8213" transform="matrix(1.0 0.0 0.0 1.0 50.0 50.0)"
        fill="none" width="324.27518" stroke-linejoin="round" height="24.959717" stroke="#000000"
        stroke-width="40"/>
    <rect x="36.632366" stroke-linecap="round" y="2466.7017" transform="matrix(1.0 0.0 0.0 1.0 50.0 50.0)"
        fill="none" width="324.27518" stroke-linejoin="round" height="24.959717" stroke="#000000"
        stroke-width="40"/>
    <rect x="36.632366" stroke-linecap="round" y="2541.5808" transform="matrix(1.0 0.0 0.0 1.0 50.0 50.0)"
        fill="none" width="324.27518" stroke-linejoin="round" height="24.959473" stroke="#000000"
        stroke-width="40"/>
    <rect x="36.632366" stroke-linecap="round" y="2616.4612" transform="matrix(1.0 0.0 0.0 1.0 50.0 50.0)"
        fill="none" width="324.27518" stroke-linejoin="round" height="31.199951" stroke="#000000"
        stroke-width="40"/>
    <path stroke-linecap="round" transform="matrix(1.0 0.0 0.0 1.0 50.0 50.0)" fill="none"
        stroke-linejoin="round" d="M 448.7328 1199.9912 c 3.563263 -56.278442 -29.97165 -135.74841 
        -73.72739 -174.719" stroke="#000000" stroke-width="40"/>
    <path stroke-linecap="round" transform="matrix(1.0 0.0 0.0 1.0 50.0 50.0)" fill="none"
        stroke-linejoin="round" d="M 22.53445 1025.2706 c -32.433342 38.97058 -57.29065 118.44043 
        -54.650677 174.719" stroke="#000000" stroke-width="40"/>
    <path stroke-linecap="round" transform="matrix(1.0 0.0 0.0 1.0 50.0 50.0)" fill="none"
        stroke-linejoin="round" d="M 360.90753 2647.6611 c -27.255402 0.0 -49.347137 19.553223 
        -49.347137 43.67871 l 0.0 0.0" stroke="#000000" stroke-width="40"/>
    <line stroke-linecap="round" transform="matrix(1.0 0.0 0.0 1.0 50.0 50.0)" fill="none" x1="311.56036"
        x2="311.56036" y1="2691.34" y2="2822.377" stroke-linejoin="round" stroke="#000000"
        stroke-width="40"/>
    <path stroke-linecap="round" transform="matrix(1.0 0.0 0.0 1.0 50.0 50.0)" fill="none"
        stroke-linejoin="round" d="M 360.90753 2616.4612 c 15.572205 0.0 28.19757 -11.177246 
        28.19757 -24.959717 c 0.0 -13.787109 -12.627106 -24.959717 -28.19757 -24.959717 l 0.0 0.0"
        stroke="#000000" stroke-width="40"/>
    <path stroke-linecap="round" transform="matrix(1.0 0.0 0.0 1.0 50.0 50.0)" fill="none"
        stroke-linejoin="round" d="M 360.90753 2492.4438 c -15.575806 0.0 -28.197632 11.174072 
        -28.197632 24.959473 c 0.0 13.78418 12.623627 24.959717 28.197632 24.959717 l 0.0 0.0"
        stroke="#000000" stroke-width="40"/>
    <path stroke-linecap="round" transform="matrix(1.0 0.0 0.0 1.0 50.0 50.0)" fill="none"
        stroke-linejoin="round" d="M 360.90753 2466.7017 c 15.572205 0.0 28.19757 -11.173828 
        28.19757 -24.959473 c 0.0 -13.78418 -12.627106 -24.959717 -28.19757 -24.959717 l 0.0 0.0"
        stroke="#000000" stroke-width="40"/>
    <path stroke-linecap="round" transform="matrix(1.0 0.0 0.0 1.0 50.0 50.0)" fill="none"
        stroke-linejoin="round" d="M 346.8078 2366.8618 c 0.18032837 8.438721 6.5813904 19.770752 
        14.101471 24.959473" stroke="#000000" stroke-width="40"/>
    <path stroke-linecap="round" transform="matrix(1.0 0.0 0.0 1.0 50.0 50.0)" fill="none"
        stroke-linejoin="round" d="M 332.7099 2341.9019 c -1.0765686 9.106934 5.220215 20.259277 
        14.0979 24.959717" stroke="#000000" stroke-width="40"/>
    <line stroke-linecap="round" transform="matrix(1.0 0.0 0.0 1.0 50.0 50.0)" fill="none" x1="448.54837"
        x2="332.7099" y1="1199.9912" y2="2341.9019" stroke-linejoin="round" stroke="#000000"
        stroke-width="40"/>
    <line stroke-linecap="round" transform="matrix(1.0 0.0 0.0 1.0 50.0 50.0)" fill="none" x1="332.7099"
        x2="64.82997" y1="2341.9019" y2="2341.9019" stroke-linejoin="round" stroke="#000000"
        stroke-width="40"/>
    <line stroke-linecap="round" transform="matrix(1.0 0.0 0.0 1.0 50.0 50.0)" fill="none" x1="346.8078"
        x2="50.73206" y1="2366.8618" y2="2367.331" stroke-linejoin="round" stroke="#000000"
        stroke-width="40"/>
    <line stroke-linecap="round" transform="matrix(1.0 0.0 0.0 1.0 50.0 50.0)" fill="none" x1="-35.0103"
        x2="64.82997" y1="1203.9912" y2="2341.9019" stroke-linejoin="round" stroke="#000000"
        stroke-width="40"/>
    <path stroke-linecap="round" transform="matrix(1.0 0.0 0.0 1.0 50.0 50.0)" fill="none"
        stroke-linejoin="round" d="M 50.73206 2366.8618 c 8.875942 -4.7006836 15.174488 -15.852783 
        14.099682 -24.959717" stroke="#000000" stroke-width="40"/>
    <path stroke-linecap="round" transform="matrix(1.0 0.0 0.0 1.0 50.0 50.0)" fill="none"
        stroke-linejoin="round" d="M 36.632366 2391.8213 c 7.518299 -5.1887207 13.919376 -16.52246 
        14.0996895 -24.959717" stroke="#000000" stroke-width="40"/>
    <path stroke-linecap="round" transform="matrix(1.0 0.0 0.0 1.0 50.0 50.0)" fill="none"
        stroke-linejoin="round" d="M 36.632366 2416.781 c -15.574005 0.0 -28.197609 11.177002 
        -28.197609 24.959473 c 1.9073486E-6 13.7873535 12.625374 24.959717 28.197609 24.959717 l 0.0 
        0.0" stroke="#000000" stroke-width="40"/>
    <path stroke-linecap="round" transform="matrix(1.0 0.0 0.0 1.0 50.0 50.0)" fill="none"
        stroke-linejoin="round" d="M 36.632366 2541.5808 c 15.574001 0.0 28.197605 -11.177246 
        28.197605 -24.959717 c 0.0 -13.787109 -12.625366 -24.959717 -28.197605 -24.959717 l 0.0 0.0"
        stroke="#000000" stroke-width="40"/>
    <path stroke-linecap="round" transform="matrix(1.0 0.0 0.0 1.0 50.0 50.0)" fill="none"
        stroke-linejoin="round" d="M 36.632366 2566.5403 c -15.574005 0.0 -28.197609 11.174072 
        -28.197609 24.959717 c 1.9073486E-6 13.783936 12.625374 24.959717 28.197609 24.959717 l 0.0 
        0.0" stroke="#000000" stroke-width="40"/>
    <line stroke-linecap="round" transform="matrix(1.0 0.0 0.0 1.0 50.0 50.0)" fill="none" x1="85.97773"
        x2="85.97773" y1="2691.34" y2="2822.377" stroke-linejoin="round" stroke="#000000"
        stroke-width="40"/>
    <path stroke-linecap="round" transform="matrix(1.0 0.0 0.0 1.0 50.0 50.0)" fill="none"
        stroke-linejoin="round" d="M 85.97773 2691.34 c 0.0 -24.125732 -22.093513 -43.678955 
        -49.345367 -43.678955 l 0.0 0.0" stroke="#000000" stroke-width="40"/>
    <path stroke-linecap="round" transform="matrix(1.0 0.0 0.0 1.0 50.0 50.0)" fill="none"
        stroke-linejoin="round" d="M 375.00543 949.61084 c -15.572266 0.0 -28.197632 11.174072 
        -28.197632 24.959656 c 0.0 13.784119 12.627167 24.958069 28.197632 24.958069 l 0.0 0.0"
        stroke="#000000" stroke-width="40"/>
    <line stroke-linecap="round" transform="matrix(1.0 0.0 0.0 1.0 50.0 50.0)" fill="none" x1="375.00543"
        x2="375.00543" y1="700.79376" y2="703.60254" stroke-linejoin="round" stroke="#000000"
        stroke-width="40"/>
    <path stroke-linecap="round" transform="matrix(1.0 0.0 0.0 1.0 50.0 50.0)" fill="none"
        stroke-linejoin="round" d="M 375.00543 922.62494 c 48.645813 -13.785645 79.09158 -73.99011 
        68.004944 -134.47162 c -5.786865 -39.691956 -36.07907 -77.35748 -68.004944 -84.55072"
        stroke="#000000" stroke-width="40"/>
    <path stroke-linecap="round" transform="matrix(1.0 0.0 0.0 1.0 50.0 50.0)" fill="none"
        stroke-linejoin="round" d="M 375.00543 625.9149 c -15.572266 0.0 -28.197632 11.175537 
        -28.197632 24.959595 s 12.627167 24.959656 28.197632 24.959656 l 0.0 0.0" stroke="#000000"
        stroke-width="40"/>
    <path stroke-linecap="round" transform="matrix(1.0 0.0 0.0 1.0 50.0 50.0)" fill="none"
        stroke-linejoin="round" d="M 375.00543 600.95526 c 21.412903 0.0 38.77414 -15.364441 
        38.77414 -34.32007 s -17.359436 -34.32013 -38.77414 -34.32013 l 0.0 0.0" stroke="#000000"
        stroke-width="40"/>
    <path stroke-linecap="round" transform="matrix(1.0 0.0 0.0 1.0 50.0 50.0)" fill="none"
        stroke-linejoin="round" d="M 44.59438 532.3151 c -21.41293 0.0 -38.772373 15.364441 
        -38.772373 34.32007 s 17.359444 34.32007 38.772373 34.32007 l 0.0 0.0" stroke="#000000"
        stroke-width="40"/>
    <path stroke-linecap="round" transform="matrix(1.0 0.0 0.0 1.0 50.0 50.0)" fill="none"
        stroke-linejoin="round" d="M 44.59438 675.83417 c 15.574001 0.0 28.197605 -11.175598 
        28.197605 -24.959595 s -12.625366 -24.959656 -28.197605 -24.959656 l 0.0 0.0" stroke="#000000"
        stroke-width="40"/>
    <path stroke-linecap="round" transform="matrix(1.0 0.0 0.0 1.0 50.0 50.0)" fill="none"
        stroke-linejoin="round" d="M 44.59438 703.60254 c -46.18594 13.785645 -75.09338 73.98859 
        -64.56616 134.47156 c 5.494234 39.692017 34.255886 77.35602 64.56616 84.55078" stroke="#000000"
        stroke-width="40"/>
    <line stroke-linecap="round" transform="matrix(1.0 0.0 0.0 1.0 50.0 50.0)" fill="none" x1="22.53445"
        x2="22.53445" y1="700.79376" y2="703.60254" stroke-linejoin="round" stroke="#000000"
        stroke-width="40"/>
    <path stroke-linecap="round" transform="matrix(1.0 0.0 0.0 1.0 50.0 50.0)" fill="none"
        stroke-linejoin="round" d="M 22.53445 1000.31104 c 15.574001 0.0 28.197605 -11.175659 
        28.197605 -24.958069 c 0.0 -13.7872925 -12.625374 -24.959656 -28.197605 -24.959656 l 0.0 
        0.0" stroke="#000000" stroke-width="40"/>
    <line stroke-linecap="round" transform="matrix(1.0 0.0 0.0 1.0 50.0 50.0)" fill="none" x1="13.384914"
        x2="-43.010303" y1="476.15704" y2="451.19586" stroke-linejoin="round" stroke="#000000"
        stroke-width="40"/>
    <line stroke-linecap="round" transform="matrix(1.0 0.0 0.0 1.0 50.0 50.0)" fill="none" x1="464.54837"
        x2="408.15497" y1="451.19586" y2="476.15704" stroke-linejoin="round" stroke="#000000"
        stroke-width="40"/>
    <line stroke-linecap="round" transform="matrix(1.0 0.0 0.0 1.0 50.0 50.0)" fill="none" x1="408.15497"
        x2="13.384914" y1="476.15704" y2="476.15704" stroke-linejoin="round" stroke="#000000"
        stroke-width="40"/>
    <line stroke-linecap="round" transform="matrix(1.0 0.0 0.0 1.0 50.0 50.0)" fill="none" x1="-43.010303"
        x2="13.384914" y1="451.19586" y2="476.15704" stroke-linejoin="round" stroke="#000000"
        stroke-width="40"/>
    <line stroke-linecap="round" transform="matrix(1.0 0.0 0.0 1.0 50.0 50.0)" fill="none" x1="408.15497"
        x2="464.54837" y1="476.15704" y2="451.19586" stroke-linejoin="round" stroke="#000000"
        stroke-width="40"/>
    <line y2="2864.0" fill="none" x1="136.0" x2="360.0" y1="2864.0" stroke="#000000"/>
</svg>