<svg  width="400" height="400" viewBox="0 0 96 96" xml:space="preserve" preserveAspectRatio="xMinYMin meet"
 xmlns='http://www.w3.org/2000/svg' xmlns:xlink="http://www.w3.org/1999/xlink"
 >

	<defs>
	<!--importStyle="windows.css"-->

	<linearGradient id="blue_white" x1="100%" y1="100%" x2="0%" y2="0%">
	<stop offset="0%" style="stop-color:rgb(65,105,225);
	stop-opacity:1"/>
	<stop offset="100%" style="stop-color:rgb(255,255,255);
	stop-opacity:1"/>
	</linearGradient>    
      <path id="arrow" d="M 0,0 m 0,-1.5 l 0,3 m 0,-1.5 l 2,1 m -2,-1 l 2,-1 m -2,1 l 4,0" style="fill:blue; stroke-opacity: 1; stroke:navy; stroke-width: .25" />
    
	</defs>
	
	<g id="window">

		<g id="glassGroup" onmouseover="expose(evt,'frame',true)" onmouseout="expose(evt,'frame',false)">
		<path id="glass_pane" d="M 15,200 A185,185 0 0,1 200,200 L 15,200" class="glass"  />
		<path id="spoke_1" d="M 0,0" stroke="black" class="hide" /> 
		<path id="spoke_2" d="M 0,0" stroke="black" class="hide" /> 
		<path id="spoke_3" d="M 0,0" stroke="black" class="hide" /> 
		<path id="spoke_4" d="M 0,0" stroke="black" class="hide" /> 
		<path id="spoke_5" d="M 0,0" stroke="black" class="hide" /> 
		<path id="spoke_6" d="M 0,0" stroke="black" class="hide" /> 
		<path id="spoke_7" d="M 0,0" stroke="black" class="hide" /> 
		<path id="spoke_8" d="M 0,0" stroke="black" class="hide" /> 
	
		<path id="arch_1" d="M 0,0" stroke="black" class="hide" /> 
		<path id="arch_2" d="M 0,0" stroke="black" class="hide" /> 
		<path id="arch_3" d="M 0,0" stroke="black" class="hide" /> 
		<path id="arch_4" d="M 0,0" stroke="black" class="hide" /> 
		<path id="arch_5" d="M 0,0" stroke="black" class="hide" /> 
		</g>
		<path id="arch_rail" d="M 10,180 A180,180 0 0,1 180,180 L 0,180" class="sash"/>
		<path id="bottom_rail" d="M 10,174 l 164,164" class="sash" />
		<path id="sash_stile" d="M 0,164 l 164,164" class="sash" />
		<path id="frame_sill" d="M 0,184 l 184,184" class="frame" />
		<path id="frame_arch" d="M 0,200 A200,200 0 0,1 200,200 L 0,200" class="frame" />
		<path id="frame_jamb" d="M 184,0 l 184,184" class="frame" />
	</g>
		
		<rect id="ELEMENT_DESCRIPTION_BOX" x="0" y="0" width="42" height="1.75" class="hide"/>	
		<text id="ELEMENT_DESCRIPTION" x="0" y="0" textLength="40" lengthAdjust="spacing" class="hide"></text>
	
</svg>
